<?xml version="1.0" encoding="iso-8859-1"?>
<!-- Generator: Adobe Illustrator 19.0.0, SVG Export Plug-In . SVG Version: 6.00 Build 0)  -->
<svg version="1.1" id="Capa_1" xmlns="http://www.w3.org/2000/svg" xmlns:xlink="http://www.w3.org/1999/xlink" x="0px" y="0px"
	 viewBox="0 0 512 512" style="enable-background:new 0 0 512 512;" xml:space="preserve">
<g>
	<path style="fill:#F4900C;" d="M494.779,304.867l-103.986-63.605l-103.956-63.635c-22.968-14.057-60.219-14.057-83.186,0
		c0,0-83.186,50.902-103.972,63.635c-20.8,12.718-10.401,19.085-31.185,31.817c-20.8,12.702-31.185,6.351-51.985,19.069
		c-20.816,12.718-22.968,36.829,0,50.902l103.956,63.635l103.986,63.62c22.953,14.073,62.386,12.763,83.14,0
		c20.816-12.718,10.43-19.055,31.215-31.817c20.786-12.702,31.171-6.351,51.985-19.055c20.816-12.748,103.986-63.62,103.986-63.62
		C517.717,341.741,517.732,318.939,494.779,304.867"/>
	<path style="fill:#F4900C;" d="M511.729,301.781L0,294.016v24.458l512,11.92L511.729,301.781z"/>
	<path style="fill:#F4900C;" d="M511.729,286.73L0,278.964v24.458l512,11.92L511.729,286.73z"/>
</g>
<path style="fill:#FFAC33;" d="M494.766,259.715L390.794,196.11l-103.956-63.635c-22.968-14.057-60.219-14.057-83.186,0
	c0,0-83.186,50.902-103.972,63.635c-20.786,12.718-10.401,19.085-31.185,31.817c-20.8,12.702-31.185,6.351-51.985,19.069
	c-20.816,12.718-22.968,36.829,0,50.902l103.956,63.635l103.986,63.62c22.968,14.073,62.386,12.763,83.14,0
	c20.816-12.718,10.43-19.055,31.215-31.817c20.786-12.702,31.171-6.351,51.985-19.055c20.816-12.748,103.972-63.62,103.972-63.62
	C517.718,296.59,517.733,273.787,494.766,259.715"/>
<path style="fill:#FFD983;" d="M479.362,272.473l-106.439-63.65l-106.425-63.62c0,0-22.667-11.906-42.564,0
	c0,0-86.784,51.88-104.799,62.641c-18.001,10.777-15.548,22.034-33.563,32.795c-18.001,10.761-35.189,8.323-53.205,19.069
	c-21.281,12.748,0,25.496,0,25.496l106.425,63.62l106.425,63.635c0,0,21.281,12.702,42.564,0
	c18.031-10.791,13.938-21.041,31.938-31.833c18.016-10.777,36.829-9.316,54.845-20.077c18.016-10.731,104.799-62.657,104.799-62.657
	S499.245,284.349,479.362,272.473"/>
<g>
	<path style="fill:#77B255;" d="M105.261,362.749c-13.922,11.83,15.005,52.949,48.9,31.05c8.444,16.691,59.542,57.841,94.805,1.535
		c7.3,13.215,86.873,33.835,103.475-33.774c2.679-9.046-90.727-28.371-140.876-28.07
		C183.887,333.641,131.525,340.414,105.261,362.749"/>
	<path style="fill:#77B255;" d="M32.549,245.839c-11.799,11.092-34.09,33.413-10.355,66.81
		c10.355,17.504,31.848,28.882,34.708,23.479c6.698-12.733,20.077-23.871,40.17-22.681c-0.256-4.531-9.768,41.134,23.735,53.296
		c16.435,5.961,34.09-3.582,54.183-24.654c32.163-33.759,114.115-18.001,137.113-9.166c23.283,8.971,43.693,14.825,37.597,38.771
		c-1.339,5.268,10.866,9.843,23.299,5.478c20.891-7.33,51.098-25.496,56.441-45.424c14.916-2.604,26.098,1.535,34.692,12.914
		c4.274,5.614,18.873,6.969,25.119-0.376c11.033-12.959,29.108-52.753,3.507-86.903c-29.229-38.982-73.674-59.661-173.491-68.014
		C219.435,181.031,90.992,190.979,32.549,245.839"/>
</g>
<path style="fill:#FFCC4D;" d="M451.526,354.84c0,7.961-13.471,14.433-30.102,14.433H90.305c-16.616,0-30.102-6.472-30.102-14.433
	V196.039c0-7.977,13.486-7.375,30.102-7.375h331.119c16.631,0,30.102-0.602,30.102,7.375L451.526,354.84L451.526,354.84z"/>
<path style="fill:#BE1931;" d="M486.3,278.779c0,41.661-69.024,75.45-154.151,75.45c-85.158,0-154.166-33.789-154.166-75.45
	c0-41.675,69.008-75.45,154.166-75.45C417.278,203.329,486.3,237.103,486.3,278.779"/>
<g>
	<path style="fill:#F4900C;" d="M494.779,214.562l-103.986-63.605L286.837,87.322c-22.968-14.057-60.219-14.057-83.186,0
		c0,0-83.186,50.902-103.972,63.635c-20.8,12.718-10.401,19.085-31.185,31.817c-20.8,12.702-31.185,6.351-51.985,19.069
		c-20.816,12.718-22.968,36.829,0,50.902l103.956,63.635L224.451,380c22.953,14.073,62.386,12.763,83.14,0
		c20.816-12.718,10.43-19.055,31.215-31.817c20.786-12.702,31.171-6.351,51.985-19.055c20.816-12.748,103.986-63.62,103.986-63.62
		C517.717,251.437,517.732,228.635,494.779,214.562"/>
	<path style="fill:#F4900C;" d="M511.729,211.476L0,203.709v24.458l512,11.92L511.729,211.476z"/>
	<path style="fill:#F4900C;" d="M511.729,196.421L0,188.654v24.458l512,11.92L511.729,196.421z"/>
</g>
<path style="fill:#FFAC33;" d="M494.766,169.41l-103.972-63.605L286.838,42.169c-22.968-14.057-60.219-14.057-83.186,0
	c0,0-83.186,50.902-103.972,63.635c-20.786,12.718-10.401,19.085-31.185,31.817c-20.8,12.702-31.185,6.351-51.985,19.069
	c-20.816,12.718-22.968,36.829,0,50.902l103.956,63.635l103.986,63.62c22.968,14.073,62.386,12.763,83.14,0
	c20.816-12.718,10.43-19.055,31.215-31.817c20.786-12.702,31.171-6.351,51.985-19.055c20.816-12.748,103.972-63.62,103.972-63.62
	C517.718,206.284,517.733,183.482,494.766,169.41"/>
<path style="fill:#FFD983;" d="M479.362,182.168l-106.439-63.65l-106.425-63.62c0,0-22.667-11.906-42.564,0
	c0,0-86.784,51.88-104.799,62.641c-18.001,10.777-15.548,22.034-33.563,32.795c-18.001,10.777-35.189,8.323-53.205,19.069
	c-21.281,12.748,0,25.496,0,25.496l106.425,63.62l106.425,63.635c0,0,21.281,12.702,42.564,0
	c18.031-10.791,13.938-21.041,31.938-31.833c18.016-10.777,36.829-9.316,54.845-20.077c18.016-10.731,104.799-62.657,104.799-62.657
	S499.245,194.044,479.362,182.168"/>
<g>
</g>
<g>
</g>
<g>
</g>
<g>
</g>
<g>
</g>
<g>
</g>
<g>
</g>
<g>
</g>
<g>
</g>
<g>
</g>
<g>
</g>
<g>
</g>
<g>
</g>
<g>
</g>
<g>
</g>
</svg>
